<svg width="24" height="24" viewBox="0 0 24 24" fill="none" xmlns="http://www.w3.org/2000/svg">
<g clip-path="url(#clip0_1_3060)">
<path d="M20.4853 3.51478C18.2188 1.24819 15.2053 0 12 0C8.79473 0 5.78123 1.24819 3.51473 3.51478C1.24819 5.78123 0 8.79473 0 12C0 15.2053 1.24819 18.2188 3.51473 20.4853C5.78123 22.7518 8.79473 24 12 24C15.2053 24 18.2188 22.7518 20.4853 20.4852C22.7518 18.2188 24 15.2053 24 12C24 8.79473 22.7518 5.78123 20.4853 3.51478ZM12 23.2421C5.80106 23.2421 0.757875 18.1989 0.757875 12C0.757875 5.80106 5.80106 0.757875 12 0.757875C18.1989 0.757875 23.2421 5.80106 23.2421 12C23.2421 18.1989 18.1989 23.2421 12 23.2421Z" fill="white"/>
<path d="M17.5889 16.6623L17.1786 14.5055C17.1468 14.3385 17.0134 14.2071 16.8418 14.1738L13.6153 13.5475C13.475 13.5204 13.3301 13.5629 13.2289 13.6611L11.9041 14.9468C9.67125 13.9795 8.43741 12.7797 7.35057 10.5199L8.67132 9.2382C8.77238 9.14008 8.81629 8.99934 8.78833 8.86321L8.14305 5.73187C8.10869 5.56529 7.97333 5.43584 7.80121 5.40503L5.57886 5.00695C5.52177 4.99659 5.46308 4.99788 5.40647 5.01036C4.8249 5.13857 4.29423 5.423 3.87188 5.83294C3.1407 6.54259 2.86139 7.57943 3.06435 8.83121C3.15676 9.4011 3.29409 9.99155 3.47257 10.5861C3.53873 10.8064 3.77653 10.9325 4.00297 10.8687C4.22984 10.8045 4.36013 10.5741 4.29407 10.3539C4.12569 9.79303 3.99635 9.23727 3.9096 8.70207C3.74868 7.70935 3.93953 6.94155 4.47698 6.41997C4.76515 6.14026 5.12225 5.9407 5.51409 5.83957L7.36103 6.1705L7.90461 8.80817L6.53573 10.1366C6.4104 10.2583 6.37535 10.4423 6.44759 10.5994C7.69199 13.3039 9.15184 14.7196 11.8338 15.8225C11.9944 15.8884 12.18 15.8533 12.3032 15.7338L13.672 14.4053L16.3899 14.9328L16.7309 16.7252C16.6267 17.1055 16.421 17.452 16.1329 17.7317C15.5953 18.2532 14.804 18.4385 13.7812 18.2822C11.7363 17.97 8.89973 17.0065 7.07168 15.2394L7.04533 15.2139C6.2044 14.3945 5.45481 13.2644 4.87778 11.9456C4.78537 11.7345 4.53428 11.6362 4.3168 11.7257C4.09933 11.8154 3.9979 12.0591 4.09026 12.2701C4.70966 13.6855 5.52193 14.9061 6.44081 15.8015L6.46728 15.8271C8.44099 17.735 11.4708 18.77 13.6482 19.1025C13.9215 19.1441 14.1846 19.1649 14.4369 19.1649C15.3755 19.1649 16.1613 18.878 16.7377 18.3187C17.1601 17.9088 17.4532 17.3938 17.5852 16.8295C17.5982 16.7746 17.5994 16.7177 17.5889 16.6623Z" fill="white"/>
<path d="M13.1404 8.04248C12.9041 8.04248 12.7126 8.22832 12.7126 8.45765C12.7126 8.68699 12.9041 8.87283 13.1404 8.87283C14.1626 8.87283 14.9942 9.67982 14.9942 10.6718C14.9942 10.898 15.1889 11.087 15.422 11.087C15.6551 11.087 15.8498 10.898 15.8498 10.6718C15.8498 9.22203 14.6343 8.04248 13.1404 8.04248Z" fill="white"/>
<path d="M13.1405 6.27148C12.9727 6.27148 12.8034 6.28049 12.6372 6.29825C12.4024 6.32342 12.2331 6.52857 12.259 6.75646C12.2849 6.98429 12.4961 7.14807 12.7311 7.12358C12.8662 7.10908 13.0039 7.10173 13.1404 7.10173C15.169 7.10173 16.8194 8.70339 16.8194 10.6721C16.8194 10.8046 16.8118 10.9383 16.7969 11.0694C16.771 11.2973 16.9404 11.5025 17.1752 11.5276C17.4069 11.5519 17.6217 11.3858 17.6473 11.1605C17.6656 10.9993 17.6749 10.8349 17.6749 10.6721C17.675 8.2456 15.6409 6.27148 13.1405 6.27148Z" fill="white"/>
<path d="M13.1404 4.5C12.978 4.5 12.8137 4.50606 12.6518 4.51792C12.4162 4.53526 12.2397 4.73462 12.2576 4.96328C12.2755 5.19194 12.4799 5.36286 12.7165 5.34583C12.8569 5.33547 12.9996 5.33029 13.1405 5.33029C16.1755 5.33029 18.6446 7.72657 18.6446 10.672C18.6446 11.0888 18.5951 11.5036 18.4974 11.905C18.4444 12.1225 18.5847 12.3468 18.8074 12.4025C19.0362 12.4598 19.2757 12.3189 19.3299 12.096C19.4429 11.632 19.5001 11.153 19.5001 10.672C19.5002 7.26878 16.6472 4.5 13.1404 4.5Z" fill="white"/>
</g>
<defs>
<clipPath id="clip0_1_3060">
<rect width="24" height="24" fill="white"/>
</clipPath>
</defs>
</svg>
