<svg width="24" height="24" viewBox="0 0 24 24" fill="none" xmlns="http://www.w3.org/2000/svg">
<path d="M20.4852 3.51473C18.2187 1.24819 15.2052 0 12 0C8.81342 0 5.76791 1.2615 3.51468 3.51473C1.24819 5.78122 0 8.79472 0 12C0 14.4987 0.760639 16.8937 2.19965 18.9261C3.60684 20.9135 5.55243 22.4099 7.82605 23.2535C7.97877 23.3101 8.15534 23.2639 8.26044 23.1268C8.31252 23.0587 8.33684 22.9733 8.33684 22.8876V16.0421C8.33684 15.8328 8.16716 15.6632 7.95791 15.6632H4.80004V12.8842H7.95791C8.1672 12.8842 8.33684 12.7145 8.33684 12.5053V12C8.33684 8.7028 11.4652 5.81052 15.0316 5.81052H16.6737V8.58945H15.0316C13.9622 8.58945 12.9897 8.89728 12.2935 9.45612C11.523 10.0745 11.1158 10.9542 11.1158 12V12.5052C11.1158 12.7145 11.2855 12.8842 11.4947 12.8842H12.9887C13.198 12.8842 13.3676 12.7145 13.3676 12.5052C13.3676 12.2959 13.198 12.1263 12.9887 12.1263H11.8736V12C11.8736 10.0421 13.5748 9.34737 15.0315 9.34737H17.0526C17.2619 9.34737 17.4315 9.17769 17.4315 8.96844V5.43158C17.4315 5.22229 17.2618 5.05265 17.0526 5.05265H15.0315C13.1791 5.05265 11.3015 5.78952 9.8802 7.07432C8.39619 8.41583 7.57888 10.1651 7.57888 12V12.1264H4.42101C4.21171 12.1264 4.04207 12.296 4.04207 12.5053V16.0421C4.04207 16.2514 4.21176 16.4211 4.42101 16.4211H7.57888V22.3389C3.47723 20.5816 0.757874 16.4947 0.757874 12C0.757874 5.80105 5.80105 0.757874 11.9999 0.757874C18.192 0.757874 23.242 5.8079 23.242 12C23.242 18.1989 18.1989 23.242 11.9999 23.242C11.9584 23.242 11.9164 23.2418 11.8736 23.2412V16.421H17.0526C17.2619 16.421 17.4315 16.2513 17.4315 16.0421V12.5052C17.4315 12.2959 17.2618 12.1263 17.0526 12.1263H14.8346C14.6253 12.1263 14.4557 12.296 14.4557 12.5052C14.4557 12.7145 14.6253 12.8842 14.8346 12.8842H16.6736V15.6631H11.4947C11.2854 15.6631 11.1158 15.8328 11.1158 16.042V23.6094C11.1158 23.8121 11.2755 23.9793 11.4781 23.988C11.6658 23.996 11.8366 24 12 24C15.2053 24 18.2188 22.7518 20.4853 20.4852C22.7385 18.232 24 15.1865 24 11.9999C24 8.79472 22.7517 5.78122 20.4852 3.51473Z" fill="white"/>
</svg>
