<svg width="24" height="24" viewBox="0 0 24 24" fill="none" xmlns="http://www.w3.org/2000/svg">
<g clip-path="url(#clip0_1_3033)">
<path d="M20.4853 3.51473C18.2188 1.24819 15.2053 0 12 0C8.79473 0 5.78123 1.24819 3.51473 3.51473C1.24819 5.78123 0 8.79473 0 12C0 15.2053 1.24819 18.2188 3.51473 20.4853C5.78123 22.7518 8.79473 24 12 24C15.2053 24 18.2188 22.7518 20.4853 20.4853C22.7518 18.2187 24 15.2053 24 12C24 8.79473 22.7518 5.78123 20.4853 3.51473ZM12 23.2421C5.80106 23.2421 0.757875 18.1989 0.757875 12C0.757875 5.80106 5.80106 0.757875 12 0.757875C18.1989 0.757875 23.2421 5.80106 23.2421 12C23.2421 18.1989 18.1989 23.2421 12 23.2421Z" fill="white"/>
<path d="M16.7578 5H8.14737C6.41188 5 5 6.41192 5 8.14737V16.7579C5 18.4933 6.41192 19.9053 8.14737 19.9053H16.7579C18.4933 19.9053 19.9053 18.4933 19.9053 16.7579V8.14737C19.9052 6.41188 18.4933 5 16.7578 5ZM19.1473 16.7578C19.1473 18.0754 18.0754 19.1473 16.7578 19.1473H8.14737C6.82981 19.1473 5.75787 18.0754 5.75787 16.7578V8.14737C5.75787 6.82981 6.82981 5.75787 8.14737 5.75787H16.7579C18.0755 5.75787 19.1474 6.82981 19.1474 8.14737V16.7578H19.1473Z" fill="white"/>
<path d="M15.8253 11.6917C15.7132 9.69795 14.0908 8.09402 12.096 8.00407C9.79405 7.90029 7.89903 9.7962 8.00417 12.0984C8.09535 14.0934 9.70058 15.715 11.6945 15.8255C12.536 15.8721 13.324 15.6507 13.9822 15.2398C14.1872 15.1118 14.2206 14.8266 14.0497 14.6558C14.0479 14.654 14.0461 14.6522 14.0443 14.6504C13.9198 14.5258 13.7266 14.507 13.577 14.6C13.0852 14.9056 12.5039 15.08 11.882 15.0735C10.1263 15.0551 8.70974 13.5808 8.75919 11.8257C8.80892 10.0594 10.3161 8.65132 12.1181 8.76424C13.6709 8.86155 14.9348 10.0997 15.0628 11.6503C15.1148 12.2819 14.979 12.8787 14.706 13.392C14.6279 13.539 14.652 13.7193 14.7697 13.837C14.7716 13.8389 14.7736 13.8409 14.7755 13.8428C14.9524 14.0197 15.2515 13.9781 15.3696 13.7577C15.6969 13.1471 15.8674 12.4406 15.8253 11.6917Z" fill="white"/>
<path d="M16.0423 8.46345C16.6004 8.46345 17.0528 8.01102 17.0528 7.45291C17.0528 6.89481 16.6004 6.44238 16.0423 6.44238C15.4842 6.44238 15.0317 6.89481 15.0317 7.45291C15.0317 8.01102 15.4842 8.46345 16.0423 8.46345Z" fill="white"/>
</g>
<defs>
<clipPath id="clip0_1_3033">
<rect width="24" height="24" fill="white"/>
</clipPath>
</defs>
</svg>
