<svg width="38" height="41" viewBox="0 0 38 41" fill="none" xmlns="http://www.w3.org/2000/svg">
<path d="M36.2526 1.30739H33.6857C33.3614 1.30739 33.0987 1.57516 33.0987 1.90561C33.0987 2.23607 33.3614 2.50383 33.6857 2.50383H36.2526C36.4021 2.50383 36.5238 2.62779 36.5238 2.78013V18.8412C36.5238 18.9935 36.4021 19.1175 36.2526 19.1175H12.2325V17.9211H28.0864C28.4107 17.9211 28.6735 17.6533 28.6735 17.3229C28.6735 16.9924 28.4107 16.7247 28.0864 16.7247H12.2325V14.187C12.2325 12.5832 10.9521 11.2783 9.37809 11.2783C7.80427 11.2783 6.52374 12.5831 6.52374 14.187V16.7247H5.16564C4.9547 15.9088 4.32289 15.2649 3.52224 15.05V10.7995C3.52224 10.469 3.25948 10.2013 2.9352 10.2013C2.61092 10.2013 2.34816 10.469 2.34816 10.7995V15.5711C2.34816 15.9015 2.61092 16.1693 2.9352 16.1693C3.55942 16.1693 4.06725 16.6868 4.06725 17.3229C4.06725 17.6533 4.33001 17.9211 4.65429 17.9211H6.52382V19.1175H1.44522C1.29572 19.1175 1.17408 18.9935 1.17408 18.8412V2.78005C1.17408 2.62771 1.29572 2.50375 1.44522 2.50375H9.55553V3.7002H4.65429C4.33001 3.7002 4.06725 3.96796 4.06725 4.29842C4.06725 4.93453 3.55942 5.45203 2.9352 5.45203C2.61092 5.45203 2.34816 5.71979 2.34816 6.05025V8.24995C2.34816 8.5804 2.61092 8.84817 2.9352 8.84817C3.25948 8.84817 3.52224 8.5804 3.52224 8.24995V6.57142C4.32289 6.35646 4.9547 5.71261 5.16564 4.89672H9.55553V5.12731C9.55553 6.56248 10.7014 7.73013 12.1098 7.73013C12.7631 7.73013 13.3596 7.47864 13.8118 7.06595C14.2486 7.86437 15.0853 8.40588 16.0442 8.40588C17.003 8.40588 17.8398 7.86437 18.2765 7.06595C18.7287 7.47856 19.3252 7.73013 19.9786 7.73013C20.979 7.73013 21.8465 7.1406 22.2654 6.28483C22.7106 6.66873 23.2855 6.90092 23.9129 6.90092C25.1191 6.90092 26.132 6.04426 26.3981 4.8968H32.5323C32.7432 5.71269 33.3751 6.35654 34.1757 6.5715V15.05C33.3751 15.265 32.7432 15.9088 32.5323 16.7247H30.5883C30.264 16.7247 30.0012 16.9925 30.0012 17.323C30.0012 17.6534 30.264 17.9212 30.5883 17.9212H33.0436C33.3679 17.9212 33.6307 17.6534 33.6307 17.323C33.6307 16.6869 34.1385 16.1694 34.7627 16.1694C35.087 16.1694 35.3498 15.9016 35.3498 15.5711V6.05033C35.3498 5.71987 35.087 5.45211 34.7627 5.45211C34.1385 5.45211 33.6307 4.93461 33.6307 4.2985C33.6307 3.96804 33.3679 3.70028 33.0436 3.70028H26.4672V2.50383H31.1841C31.5083 2.50383 31.7711 2.23607 31.7711 1.90561C31.7711 1.57516 31.5083 1.30739 31.1841 1.30739H26.358C26.0943 0.546694 25.3822 0 24.5467 0H23.2789C22.7614 0 22.2913 0.210095 21.9457 0.550523C21.6 0.210095 21.1299 0 20.6124 0H19.3446C18.8271 0 18.357 0.210095 18.0113 0.550523C17.6656 0.210095 17.1956 0 16.678 0H15.4103C14.8927 0 14.4226 0.210095 14.077 0.550523C13.7313 0.210095 13.2612 0 12.7437 0H11.4759C10.6405 0 9.92826 0.546694 9.6648 1.30739H1.44522C0.648327 1.30739 0 1.96807 0 2.78013V18.8412C0 19.6532 0.648327 20.3139 1.44522 20.3139H6.52382V24.751C6.52382 26.0272 7.01146 27.227 7.89695 28.1294L10.4107 30.6909V40.1636C10.4107 40.4941 10.6734 40.7618 10.9977 40.7618C11.322 40.7618 11.5847 40.4941 11.5847 40.1636V30.4431C11.5847 30.2845 11.5229 30.1324 11.4129 30.0201L8.72718 27.2833C8.06343 26.607 7.6979 25.7075 7.6979 24.751V14.1869C7.6979 13.2428 8.45166 12.4747 9.37817 12.4747C10.3047 12.4747 11.0585 13.2428 11.0585 14.1869V19.7157C11.0585 20.0461 11.3213 20.3139 11.6456 20.3139C14.2847 20.3139 16.4317 22.5019 16.4317 25.1912V25.5744C16.4317 25.9049 16.6944 26.1726 17.0187 26.1726C17.343 26.1726 17.6057 25.9049 17.6057 25.5744V25.1912C17.6057 23.1949 16.6551 21.4216 15.1917 20.3138H27.4994V20.6229C27.4994 21.685 27.1784 22.7029 26.5713 23.5662L24.8815 25.9686C24.8101 26.0702 24.7716 26.1921 24.7716 26.3171V40.1635C24.7716 40.494 25.0344 40.7617 25.3587 40.7617C25.6829 40.7617 25.9457 40.494 25.9457 40.1635V26.5095L27.5255 24.2633C28.2766 23.1955 28.6736 21.9368 28.6736 20.623V20.3139H36.2526C37.0496 20.3139 37.6979 19.6532 37.6979 18.8412V2.78005C37.6979 1.96807 37.0495 1.30739 36.2526 1.30739ZM23.2789 1.19644H24.5467C24.9581 1.19644 25.2929 1.53759 25.2929 1.9569V4.29794C25.2929 5.07347 24.6738 5.7044 23.9127 5.7044C23.1517 5.7044 22.5326 5.07347 22.5326 4.29794V1.9569C22.5327 1.53759 22.8674 1.19644 23.2789 1.19644ZM19.3446 1.19644H20.6124C21.0239 1.19644 21.3586 1.53759 21.3586 1.9569V5.12723C21.3586 5.90277 20.7395 6.53361 19.9785 6.53361C19.2174 6.53361 18.5983 5.90277 18.5983 5.12723V1.9569C18.5983 1.53759 18.9332 1.19644 19.3446 1.19644ZM15.4103 1.19644H16.678C17.0895 1.19644 17.4242 1.53759 17.4242 1.9569V5.80306C17.4242 6.5786 16.8052 7.20944 16.0441 7.20944H16.0441C15.283 7.20944 14.664 6.5786 14.664 5.80306V1.9569C14.664 1.53759 14.9988 1.19644 15.4103 1.19644ZM10.7296 1.9569C10.7296 1.53759 11.0644 1.19644 11.4759 1.19644H12.7436C13.1551 1.19644 13.4899 1.53759 13.4899 1.9569V5.12723C13.4899 5.90277 12.8707 6.53361 12.1097 6.53361C11.3487 6.53361 10.7295 5.90277 10.7295 5.12723V1.9569H10.7296Z" fill="#688800"/>
</svg>
