<svg width="40" height="42" viewBox="0 0 40 42" fill="none" xmlns="http://www.w3.org/2000/svg">
<g clip-path="url(#clip0_3002_1436)">
<path d="M26.8181 9.27124H25.6885C25.8877 8.91744 26.0024 8.50808 26.0024 8.07172V4.40865C26.0024 3.07537 24.938 1.99072 23.6297 1.99072H2.37273C1.06438 1.9912 0 3.07585 0 4.40904V8.07211C0 9.40539 1.06438 10.49 2.37273 10.49H3.50219C3.30297 10.8438 3.18828 11.2532 3.18828 11.6896V15.3526C3.18828 15.7891 3.30289 16.1984 3.50219 16.5522H2.37273C1.06438 16.5521 0 17.6367 0 18.9699V22.633C0 23.6872 0.665859 24.5856 1.59125 24.9155C1.34156 25.2983 1.19562 25.7572 1.19562 26.2504V29.9134C1.19562 30.4066 1.34156 30.8655 1.59125 31.2483C0.665859 31.5782 0 32.4766 0 33.5308V37.1939C0 38.5271 1.06438 39.6117 2.37273 39.6117H20.6008C20.931 39.6117 21.1986 39.339 21.1986 39.0025C21.1986 38.6661 20.9309 38.3933 20.6008 38.3933H2.37273C1.72359 38.3933 1.19562 37.8552 1.19562 37.1939V33.5308C1.19562 32.8694 1.72367 32.3313 2.37273 32.3313H3.56836H6.74148H13.9324C14.2627 32.3313 14.5302 32.0585 14.5302 31.7221C14.5302 31.3856 14.2627 31.1129 13.9324 31.1129H6.74141H3.56836C2.91922 31.1129 2.39125 30.5748 2.39125 29.9134V26.2503C2.39125 25.5889 2.9193 25.0508 3.56836 25.0508H12.8431C13.1734 25.0508 13.4409 24.778 13.4409 24.4416C13.4409 24.1051 13.1734 23.8324 12.8431 23.8324H2.37273C1.72359 23.8324 1.19562 23.2943 1.19562 22.6328V18.9698C1.19562 18.3083 1.72367 17.7702 2.37273 17.7702H5.56102H10.3459H16.2305C16.5608 17.7702 16.8284 17.4975 16.8284 17.161C16.8284 16.8246 16.5608 16.5518 16.2305 16.5518H10.3459H5.56102C4.91187 16.5518 4.38391 16.0137 4.38391 15.3523V11.6892C4.38391 11.0278 4.91195 10.4897 5.56102 10.4897H23.6298H26.8181C27.4673 10.4897 27.9952 11.0278 27.9952 11.6892V12.1436C27.9952 12.48 28.2628 12.7528 28.593 12.7528C28.9233 12.7528 29.1909 12.48 29.1909 12.1436V11.6892C29.1909 10.3559 28.1265 9.27124 26.8181 9.27124ZM24.8069 8.07211C24.8069 8.73354 24.2788 9.27164 23.6298 9.27164H5.56102H2.37273C1.72359 9.27156 1.19562 8.73346 1.19562 8.07211V4.40904C1.19562 3.74762 1.72367 3.20952 2.37273 3.20952H23.6298C24.2789 3.20952 24.8069 3.74762 24.8069 4.40904V8.07211Z" fill="#688800"/>
<path d="M34.0883 15.2565C33.8119 15.0728 33.4414 15.1524 33.2612 15.4343C33.0808 15.7161 33.159 16.0936 33.4355 16.2772C36.7974 18.5098 38.8044 22.2806 38.8044 26.364C38.8044 32.9976 33.5084 38.3945 26.9988 38.3945C20.4891 38.3945 15.1931 32.9976 15.1931 26.364C15.1931 19.7304 20.4891 14.3336 26.9988 14.3336C28.708 14.3336 30.3564 14.6974 31.8981 15.415C32.1987 15.5549 32.5531 15.4199 32.6902 15.114C32.8274 14.808 32.6951 14.4466 32.3948 14.3068C30.6961 13.5161 28.8806 13.1152 26.9988 13.1152C19.83 13.1152 13.9976 19.0587 13.9976 26.364C13.9976 33.6694 19.83 39.6128 26.9988 39.6128C34.1676 39.6128 40.0001 33.6695 40.0001 26.3641C40.0001 21.8672 37.7901 17.7148 34.0883 15.2565Z" fill="#688800"/>
<path d="M33.6229 19.6131C31.8534 17.8099 29.5008 16.8169 26.9985 16.8169C24.4961 16.8169 22.1435 17.81 20.374 19.6131C18.0086 22.0235 17.0817 25.5673 17.9549 28.8617C18.041 29.1865 18.3689 29.3787 18.6878 29.291C19.0065 29.2032 19.1951 28.8689 19.109 28.544C18.3471 25.6695 19.1558 22.5775 21.2195 20.4746C22.7631 18.9016 24.8155 18.0352 26.9985 18.0352C29.1816 18.0352 31.234 18.9016 32.7776 20.4746C35.9642 23.722 35.9642 29.0056 32.7776 32.253C29.591 35.5002 24.4061 35.5002 21.2195 32.253C20.6467 31.6692 20.1647 31.008 19.7868 30.2876C19.6313 29.9908 19.2692 29.8787 18.9779 30.0375C18.6867 30.196 18.5768 30.5652 18.7325 30.8619C19.1659 31.6881 19.7182 32.4459 20.3741 33.1144C22.2005 34.9756 24.5996 35.9062 26.9986 35.9062C29.3977 35.9062 31.7967 34.9757 33.6231 33.1144C37.2757 29.3922 37.2757 23.3354 33.6229 19.6131Z" fill="#688800"/>
<path d="M27.5969 25.8036V22.4489C28.4685 22.6558 29.1063 23.3027 29.1063 24.0672C29.1063 24.4036 29.3739 24.6764 29.7041 24.6764C30.0343 24.6764 30.3019 24.4036 30.3019 24.0672C30.3019 22.6443 29.1336 21.458 27.597 21.2096V20.8514C27.597 20.5149 27.3294 20.2422 26.9992 20.2422C26.6689 20.2422 26.4014 20.5149 26.4014 20.8514V21.2096C24.8647 21.458 23.6964 22.6444 23.6964 24.0672C23.6964 25.4899 24.8647 26.6764 26.4014 26.9247V30.2795C25.5297 30.0725 24.8919 29.4256 24.8919 28.6612C24.8919 28.3247 24.6243 28.052 24.2941 28.052C23.9639 28.052 23.6963 28.3247 23.6963 28.6612C23.6963 30.084 24.8647 31.2704 26.4013 31.5187V31.877C26.4013 32.2134 26.6689 32.4862 26.9991 32.4862C27.3293 32.4862 27.5969 32.2134 27.5969 31.877V31.5187C29.1336 31.2704 30.3018 30.0839 30.3018 28.6612C30.3018 27.2384 29.1336 26.0519 27.5969 25.8036ZM26.4014 25.6855C25.5297 25.4786 24.8919 24.8316 24.8919 24.0672C24.8919 23.3027 25.5297 22.6559 26.4014 22.4489V25.6855ZM27.5968 30.2795V27.043C28.4684 27.2499 29.1062 27.8969 29.1062 28.6612C29.1062 29.4255 28.4684 30.0725 27.5968 30.2795Z" fill="#688800"/>
</g>
<defs>
<clipPath id="clip0_3002_1436">
<rect width="40" height="40.7618" fill="white" transform="translate(0 0.421387)"/>
</clipPath>
</defs>
</svg>
