<svg width="40" height="31" viewBox="0 0 40 31" fill="none" xmlns="http://www.w3.org/2000/svg">
<path d="M32.3828 9.86913H29.8645L30.6232 0.991542C30.6247 0.97546 30.6249 0.959617 30.625 0.943774C30.625 0.942421 30.6251 0.941147 30.6251 0.939793C30.6251 0.939554 30.6251 0.939395 30.6251 0.939157C30.6251 0.69753 30.4821 0.484565 30.2718 0.391975C30.27 0.391179 30.2683 0.390223 30.2665 0.389427C30.2535 0.383854 30.24 0.379077 30.2264 0.37446C30.2213 0.372788 30.2164 0.370718 30.2114 0.369126C30.2003 0.365702 30.1889 0.362995 30.1775 0.360209C30.1696 0.358298 30.1619 0.35599 30.1539 0.354397C30.1439 0.352407 30.1336 0.351133 30.1235 0.349621C30.1139 0.348188 30.1046 0.346516 30.095 0.34564C30.0933 0.345481 30.0918 0.345162 30.0902 0.345003C30.0799 0.344047 30.0697 0.344207 30.0595 0.343808C30.0526 0.34357 30.0459 0.342773 30.039 0.342773H30.0317C30.0311 0.342773 30.0304 0.342773 30.0299 0.342773H18.0477C17.7243 0.342773 17.4618 0.610274 17.4618 0.939873C17.4618 1.26868 17.7243 1.53697 18.0477 1.53697H29.4003L28.2343 15.1807C28.2341 15.1817 28.2341 15.1828 28.2339 15.1838L27.9397 18.6264H7.57956L7.92011 15.0439H11.7968C12.1204 15.0439 12.3827 14.7766 12.3827 14.4468C12.3827 14.1171 12.1204 13.8497 11.7968 13.8497H8.0337L8.75277 6.28686H14.9227C15.2464 6.28686 15.5087 6.01952 15.5087 5.68976C15.5087 5.36 15.2464 5.09266 14.9227 5.09266H8.86636L9.20449 1.53697H15.704C16.0266 1.53697 16.2899 1.26868 16.2899 0.939873C16.2899 0.610274 16.0266 0.342773 15.704 0.342773H8.67269C8.67238 0.342773 8.67214 0.342853 8.67183 0.342853C8.3966 0.342773 8.15784 0.540215 8.10011 0.813925C8.09972 0.815915 8.09902 0.817826 8.09863 0.819816C8.09566 0.834704 8.0937 0.84991 8.09175 0.865196C8.0912 0.870052 8.09019 0.87467 8.08972 0.879526C8.08964 0.880482 8.08941 0.881357 8.08933 0.882312L7.68901 5.09266H0.58594C0.262267 5.09266 0 5.36 0 5.68976C0 6.01952 0.262267 6.28686 0.58594 6.28686H7.57542L6.85636 13.8497H4.7658C4.44213 13.8497 4.17986 14.1171 4.17986 14.4468C4.17986 14.7766 4.44213 15.0439 4.7658 15.0439H6.74284L6.35127 19.1616C6.3512 19.1622 6.3512 19.1629 6.35112 19.1634L5.74573 25.5308C5.74565 25.5315 5.74557 25.5323 5.74549 25.533L5.74526 25.5353C5.74448 25.5435 5.74455 25.5517 5.74409 25.5599C5.74354 25.5709 5.74244 25.5817 5.74244 25.5928C5.74244 25.5933 5.74252 25.5938 5.74252 25.5943C5.74252 25.6097 5.74362 25.6248 5.74471 25.64C5.74518 25.6448 5.74502 25.6498 5.74557 25.6545C5.74713 25.67 5.74971 25.6852 5.75244 25.7003C5.75323 25.7048 5.75362 25.7093 5.75448 25.7137C5.75674 25.7251 5.75994 25.7362 5.76291 25.7474C5.76494 25.7553 5.76659 25.7634 5.76893 25.7711C5.76963 25.7732 5.77057 25.7753 5.77119 25.7775C5.79955 25.8664 5.84768 25.9462 5.91049 26.0113C5.91166 26.0125 5.9126 26.0138 5.91377 26.0149C5.92002 26.0213 5.92682 26.027 5.93338 26.0331C5.97377 26.0708 6.0194 26.1028 6.06932 26.1279C6.07971 26.1332 6.08995 26.1387 6.10057 26.1432C6.10377 26.1446 6.10721 26.1456 6.11049 26.1469C6.12518 26.1528 6.13995 26.1586 6.15518 26.1634C6.15659 26.1638 6.15791 26.1641 6.15932 26.1645C6.17666 26.1698 6.19416 26.1744 6.21206 26.1781C6.2144 26.1786 6.21682 26.1788 6.21909 26.1793C6.23612 26.1825 6.25323 26.1853 6.27065 26.1871C6.27104 26.1871 6.27135 26.1871 6.27174 26.1872C6.29096 26.1891 6.31002 26.1901 6.32893 26.1901C6.32917 26.1901 6.32948 26.19 6.32979 26.19H8.93824C9.22629 28.4154 11.0986 30.1391 13.3599 30.1391C15.6211 30.1391 17.4933 28.4154 17.7814 26.19H27.1798C27.4679 28.4154 29.3401 30.1391 31.6014 30.1391C33.8626 30.1391 35.735 28.4154 36.0231 26.19H38.6322C38.6326 26.19 38.633 26.1901 38.6334 26.1901C38.653 26.1901 38.6722 26.1889 38.6912 26.187C38.6947 26.1867 38.698 26.1859 38.7014 26.1855C38.7166 26.1837 38.7318 26.1816 38.7466 26.1785C38.753 26.1773 38.7592 26.1755 38.7655 26.174C38.777 26.1713 38.7886 26.1684 38.7998 26.165C38.8075 26.1627 38.8149 26.16 38.8224 26.1574C38.832 26.154 38.8416 26.1505 38.8511 26.1466C38.8592 26.1434 38.867 26.1398 38.8748 26.1362C38.8834 26.1321 38.892 26.128 38.9004 26.1236C38.9084 26.1195 38.916 26.1152 38.9237 26.1107C38.9317 26.1059 38.9397 26.101 38.9476 26.0959C38.9549 26.0911 38.9623 26.0863 38.9693 26.0812C38.9773 26.0755 38.9848 26.0696 38.9926 26.0635C38.999 26.0583 39.0055 26.0532 39.0117 26.0478C39.0198 26.0409 39.0273 26.0336 39.035 26.0262C39.0403 26.0211 39.0459 26.016 39.051 26.0106C39.0591 26.0021 39.0669 25.9932 39.0746 25.9842C39.0787 25.9793 39.083 25.9747 39.087 25.9697C39.0956 25.9589 39.1034 25.9477 39.1112 25.9365C39.1139 25.9326 39.1169 25.929 39.1194 25.925C39.129 25.9104 39.138 25.8954 39.1462 25.88C39.1469 25.879 39.1475 25.8782 39.1479 25.8771C39.1567 25.8606 39.1648 25.8436 39.1721 25.8261C39.1741 25.8211 39.1757 25.8159 39.1777 25.8109C39.1824 25.7985 39.1871 25.7862 39.1911 25.7734C39.1937 25.7651 39.1955 25.7566 39.1978 25.7482C39.2004 25.7383 39.2031 25.7284 39.2053 25.7183C39.2073 25.7093 39.2085 25.7001 39.21 25.6909C39.2113 25.6829 39.213 25.675 39.2141 25.6668C39.2389 25.4639 39.6977 21.7126 39.9027 19.287C39.9029 19.2847 39.903 19.2823 39.9032 19.28C39.9622 18.5807 40 17.9919 40 17.6314C40 13.3513 36.583 9.86913 32.3828 9.86913ZM29.7624 11.0635H32.1595L31.8533 14.6458H29.4562L29.7624 11.0635ZM13.3601 28.9448C11.5462 28.9448 10.0706 27.441 10.0706 25.5927C10.0706 23.7444 11.5463 22.2407 13.3601 22.2407C15.1738 22.2407 16.6494 23.7444 16.6494 25.5927C16.6494 27.441 15.1738 28.9448 13.3601 28.9448ZM31.6014 28.9448C29.7876 28.9448 28.3121 27.441 28.3121 25.5927C28.3121 23.7444 29.7877 22.2407 31.6014 22.2407C33.4152 22.2407 34.8908 23.7444 34.8908 25.5927C34.8908 27.441 33.4152 28.9448 31.6014 28.9448ZM38.1144 24.9954H36.0233C35.7353 22.7698 33.8629 21.0461 31.6015 21.0461C29.3403 21.0461 27.4679 22.7699 27.18 24.9954H17.7816C17.4937 22.7698 15.6214 21.0461 13.3601 21.0461C11.0987 21.0461 9.22629 22.7699 8.93832 24.9954H6.97393L7.46604 19.8202H28.4767V19.8206C28.477 19.8206 28.4772 19.8206 28.4775 19.8206C28.4971 19.8206 28.5166 19.8194 28.5358 19.8174C28.5394 19.8171 28.5429 19.8163 28.5465 19.8159C28.5618 19.814 28.5771 19.8118 28.5921 19.8088C28.5985 19.8074 28.6049 19.8056 28.6113 19.804C28.623 19.8011 28.6347 19.7983 28.6461 19.7948C28.6539 19.7924 28.6614 19.7896 28.6689 19.7869C28.6788 19.7834 28.6886 19.7799 28.6982 19.776C28.7064 19.7725 28.7143 19.7687 28.7222 19.7649C28.7309 19.7608 28.7396 19.7568 28.7479 19.7523C28.7559 19.748 28.7637 19.7434 28.7716 19.7388C28.7796 19.734 28.7876 19.7292 28.7954 19.7241C28.803 19.719 28.8102 19.7138 28.8175 19.7085C28.8252 19.703 28.8327 19.6972 28.8402 19.6913C28.8469 19.6858 28.8535 19.6801 28.8601 19.6743C28.8675 19.6678 28.8748 19.6611 28.8818 19.6542C28.8878 19.6483 28.8937 19.6424 28.8995 19.6362C28.9065 19.6288 28.9133 19.621 28.92 19.6132C28.9253 19.6069 28.9304 19.6007 28.9354 19.5944C28.9419 19.586 28.9481 19.5774 28.9542 19.5687C28.9588 19.5622 28.9632 19.5557 28.9676 19.549C28.9733 19.54 28.9788 19.5308 28.984 19.5214C28.988 19.5144 28.9921 19.5074 28.9957 19.5002C29.0006 19.4908 29.0048 19.4812 29.0093 19.4716C29.0127 19.4639 29.0162 19.4563 29.0193 19.4484C29.0232 19.439 29.0264 19.4293 29.0297 19.4197C29.0326 19.4112 29.0357 19.4027 29.0382 19.3939C29.0408 19.3847 29.0429 19.3752 29.0453 19.3658C29.0475 19.3563 29.05 19.3469 29.0518 19.3373C29.0536 19.3279 29.0547 19.3183 29.0561 19.3088C29.0575 19.2989 29.0592 19.2892 29.0601 19.2792C29.0603 19.2777 29.0606 19.2764 29.0607 19.275L29.3543 15.8397H32.3826C34.1779 15.8397 34.9876 16.7875 35.8447 17.7911C36.5519 18.6192 37.3416 19.5431 38.6837 19.7685C38.5133 21.6052 38.2377 23.963 38.1144 24.9954ZM38.7839 18.5719C37.9132 18.391 37.3775 17.7672 36.7285 17.0074C35.9169 16.0572 34.926 14.8977 33.0265 14.6816L33.3297 11.135C36.4362 11.6032 38.8281 14.3377 38.8281 17.6316C38.8281 17.8554 38.8117 18.1805 38.7839 18.5719Z" fill="#688800"/>
</svg>
