<svg width="40" height="42" viewBox="0 0 40 42" fill="none" xmlns="http://www.w3.org/2000/svg">
<g clip-path="url(#clip0_3002_1416)">
<path d="M38.1661 14.8943H34.2312L32.242 6.94516C31.9921 5.94634 30.9913 5.3412 30.0114 5.59573L25.4763 6.77415C25.1704 6.85361 24.9857 7.17079 25.0636 7.48247C25.1417 7.79415 25.4528 7.98228 25.7587 7.90298L30.2938 6.72456C30.6634 6.62878 31.0402 6.85671 31.1344 7.23304L31.3547 8.11364L1.38562 15.901L1.16531 15.0205C1.11968 14.8382 1.14648 14.6487 1.2407 14.4869C1.335 14.3251 1.48547 14.2104 1.66437 14.1639L22.2783 8.80731C22.5842 8.72785 22.7689 8.41067 22.691 8.09899C22.6129 7.78731 22.3019 7.59918 21.9959 7.67848L1.38187 13.0351C0.401717 13.2897 -0.192344 14.3095 0.0575773 15.3082L4.28476 32.2014C4.49608 33.0459 5.24397 33.6091 6.06249 33.6091C6.21202 33.6091 6.36405 33.5902 6.51546 33.5509L6.78608 33.4806V34.1973C6.78608 35.2281 7.60897 36.0666 8.62045 36.0666H38.1661C39.1776 36.0666 40.0005 35.2281 40.0005 34.1973V16.7636C40.0005 15.7329 39.1776 14.8943 38.1661 14.8943ZM6.78616 32.2784L6.23311 32.4221C5.86382 32.5181 5.48671 32.29 5.39249 31.9136L2.80499 21.5732L6.78616 20.5387V32.2784ZM6.78616 16.7636V19.3366L2.52257 20.4445L1.66812 17.0297L7.19053 15.5947C6.93788 15.9151 6.78616 16.3216 6.78616 16.7636ZM33.0515 14.8943H28.508L32.7741 13.7857L33.0515 14.8943ZM31.6372 9.24223L32.4917 12.657L23.8818 14.8943H9.88607L31.6372 9.24223ZM38.1661 34.9017H8.62053C8.23936 34.9017 7.9292 34.5858 7.9292 34.1973V32.731V16.7636C7.9292 16.3752 8.23928 16.0592 8.62053 16.0592H38.1661C38.5473 16.0592 38.8573 16.3752 38.8573 16.7636V34.1973C38.8573 34.5858 38.5473 34.9017 38.1661 34.9017Z" fill="#688800"/>
<path d="M22.7606 29.2329H10.3069C9.99129 29.2329 9.73535 29.4935 9.73535 29.8151C9.73535 30.1367 9.99129 30.3973 10.3069 30.3973H22.7606C23.0762 30.3973 23.3322 30.1367 23.3322 29.8151C23.3322 29.4936 23.0763 29.2329 22.7606 29.2329Z" fill="#688800"/>
<path d="M32.2854 18.9907C31.4645 18.9907 30.7048 19.2608 30.0856 19.7172C29.4475 19.2461 28.6822 18.9907 27.8834 18.9907C25.8086 18.9907 24.1206 20.7108 24.1206 22.8252C24.1208 24.9395 25.8087 26.6596 27.8835 26.6596C28.6822 26.6596 29.4475 26.4042 30.0856 25.9331C30.7048 26.3895 31.4646 26.6596 32.2854 26.6596C34.3602 26.6596 36.0482 24.9395 36.0482 22.8252C36.0482 20.7108 34.3602 18.9907 32.2854 18.9907ZM28.5272 23.0069C28.5279 23.0219 28.529 23.0368 28.5298 23.0518C28.5325 23.1006 28.5362 23.1492 28.5408 23.1977C28.5418 23.209 28.5429 23.2203 28.544 23.2316C28.6137 23.9128 28.8576 24.5526 29.2553 25.0992C28.8459 25.3566 28.3736 25.4946 27.8835 25.4946C26.439 25.4946 25.2638 24.2971 25.2638 22.8251C25.2639 21.3532 26.439 20.1556 27.8835 20.1556C28.3736 20.1556 28.8459 20.2936 29.2553 20.5511C28.8576 21.0976 28.6137 21.7374 28.544 22.4186C28.5429 22.4299 28.5418 22.4411 28.5408 22.4524C28.5362 22.5009 28.5326 22.5496 28.5298 22.5984C28.529 22.6133 28.5279 22.6282 28.5272 22.6431C28.5245 22.7035 28.5227 22.7641 28.5227 22.825C28.5227 22.8859 28.5245 22.9465 28.5272 23.0069ZM32.2856 25.4947C31.5704 25.4947 30.9215 25.2008 30.4482 24.7257C30.4385 24.7159 30.4289 24.706 30.4193 24.6961C30.3975 24.6735 30.3758 24.6506 30.3548 24.6272C30.349 24.6208 30.3433 24.6143 30.3375 24.6077C30.3129 24.5797 30.2885 24.5514 30.265 24.5223C30.2648 24.5221 30.2647 24.522 30.2646 24.5218C29.8908 24.0602 29.6659 23.4689 29.6659 22.825C29.6658 22.1813 29.8907 21.5899 30.2647 21.1282C30.2647 21.1282 30.2648 21.1281 30.2649 21.1279C30.2885 21.0988 30.3129 21.0704 30.3377 21.0423C30.3434 21.0359 30.349 21.0294 30.3548 21.0231C30.3759 20.9996 30.3975 20.9767 30.4194 20.9541C30.429 20.9442 30.4385 20.9344 30.4482 20.9247C30.9214 20.4495 31.5704 20.1556 32.2856 20.1556C33.73 20.1556 34.9052 21.3532 34.9052 22.8252C34.9052 24.2972 33.73 25.4947 32.2856 25.4947Z" fill="#688800"/>
<path d="M14.3804 19.3696H11.8737C10.6948 19.3696 9.73584 20.3469 9.73584 21.5482V24.1026C9.73576 25.3039 10.6948 26.2812 11.8737 26.2812H14.3804C15.5591 26.2812 16.5182 25.3039 16.5182 24.1026V21.5482C16.5182 20.347 15.5592 19.3696 14.3804 19.3696ZM15.375 23.1383H14.1557C13.8401 23.1383 13.5841 23.399 13.5841 23.7207C13.5841 24.0424 13.84 24.3032 14.1557 24.3032H15.3553C15.2636 24.7664 14.8614 25.1163 14.3803 25.1163H11.8736C11.3924 25.1163 10.9901 24.7664 10.8986 24.3032H12.0982C12.4138 24.3032 12.6697 24.0424 12.6697 23.7207C12.6697 23.399 12.4139 23.1383 12.0982 23.1383H10.8789V22.6335H12.0982C12.4138 22.6335 12.6697 22.3728 12.6697 22.0511C12.6697 21.7294 12.4139 21.4686 12.0982 21.4686H10.8828C10.9228 20.9468 11.3514 20.5344 11.8736 20.5344H14.3803C14.9025 20.5344 15.331 20.9468 15.3711 21.4686H14.1557C13.8401 21.4686 13.5841 21.7294 13.5841 22.0511C13.5841 22.3727 13.84 22.6335 14.1557 22.6335H15.375V23.1383Z" fill="#688800"/>
<path d="M36.1805 31.7954H16.2796C15.9639 31.7954 15.708 32.056 15.708 32.3776C15.708 32.6992 15.9639 32.9598 16.2796 32.9598H36.1805C36.4962 32.9598 36.7521 32.6992 36.7521 32.3776C36.7521 32.056 36.4963 31.7954 36.1805 31.7954Z" fill="#688800"/>
<path d="M12.6365 31.7954H10.3074C9.99178 31.7954 9.73584 32.056 9.73584 32.3776C9.73584 32.6992 9.9917 32.9598 10.3074 32.9598H12.6365C12.9522 32.9598 13.2081 32.6992 13.2081 32.3776C13.2081 32.056 12.9522 31.7954 12.6365 31.7954Z" fill="#688800"/>
</g>
<defs>
<clipPath id="clip0_3002_1416">
<rect width="40" height="40.7618" fill="white" transform="translate(0 0.421387)"/>
</clipPath>
</defs>
</svg>
