<svg width="40" height="34" viewBox="0 0 40 34" fill="none" xmlns="http://www.w3.org/2000/svg">
<path d="M38.1616 32.5984H37.495V14.8843C39.0002 13.8973 40 12.1763 40 10.2207C40 10.1168 39.9734 10.0147 39.9228 9.92446L35.2734 1.63294C34.9468 1.05073 34.3352 0.688965 33.6771 0.688965H6.32289C5.66484 0.688965 5.0532 1.05065 4.72664 1.63294L0.0771875 9.92446C0.0266406 10.0147 0 10.1169 0 10.2207C0 12.1763 0.999844 13.8973 2.505 14.8843V32.5984H1.83844C1.51484 32.5984 1.2525 32.8657 1.2525 33.1955C1.2525 33.5252 1.51484 33.7926 1.83844 33.7926H38.1616C38.4852 33.7926 38.7475 33.5252 38.7475 33.1955C38.7475 32.8657 38.4852 32.5984 38.1616 32.5984ZM1.21227 10.8178H3.0907C3.4143 10.8178 3.67664 10.5505 3.67664 10.2207C3.67664 9.89095 3.4143 9.62361 3.0907 9.62361H1.59562L5.74414 2.22541C5.86258 2.01428 6.0843 1.88316 6.32289 1.88316H33.6771C33.9157 1.88316 34.1375 2.01428 34.2559 2.22541L38.4043 9.62361H36.9089C36.5852 9.62361 36.323 9.89095 36.323 10.2207C36.323 10.5505 36.5852 10.8178 36.9089 10.8178H38.7877C38.5012 12.9342 36.7148 14.5696 34.5605 14.5696C32.4062 14.5696 30.6207 12.9341 30.3341 10.8178H34.4041C34.7278 10.8178 34.9901 10.5505 34.9901 10.2207C34.9901 9.89095 34.7278 9.62361 34.4041 9.62361H5.59617C5.27258 9.62361 5.01023 9.89095 5.01023 10.2207C5.01023 10.5505 5.27258 10.8178 5.59617 10.8178H9.66578C9.37922 12.9341 7.59367 14.5696 5.43945 14.5696C3.28508 14.5696 1.49875 12.9342 1.21227 10.8178ZM29.0798 10.8178C28.7933 12.9341 27.0077 14.5696 24.8535 14.5696C22.6992 14.5696 20.9138 12.9341 20.6272 10.8178H29.0798ZM19.3728 10.8178C19.0863 12.9341 17.3007 14.5696 15.1465 14.5696C12.9923 14.5696 11.2067 12.9341 10.9202 10.8178H19.3728ZM33.1917 32.5985H26.8485V30.6017H33.1917V32.5985ZM33.1917 29.4075H26.8485V18.4761H33.1917V29.4075ZM36.3231 32.5985H34.3637V17.879C34.3637 17.5492 34.1014 17.2819 33.7777 17.2819H26.2627C25.939 17.2819 25.6767 17.5492 25.6767 17.879V32.5984H3.67687V15.4634C4.23008 15.6571 4.82258 15.7638 5.43945 15.7638C7.55625 15.7638 9.39445 14.5253 10.293 12.722C11.1915 14.5252 13.0297 15.7638 15.1465 15.7638C17.2633 15.7638 19.1015 14.5253 20 12.722C20.8985 14.5252 22.7367 15.7638 24.8535 15.7638C26.9703 15.7638 28.8085 14.5253 29.707 12.722C30.6055 14.5252 32.4437 15.7638 34.5605 15.7638C35.1774 15.7638 35.7699 15.6571 36.3231 15.4635V32.5985Z" fill="#688800"/>
</svg>
