<svg width="32" height="32" viewBox="0 0 32 32" fill="none" xmlns="http://www.w3.org/2000/svg">
<path d="M27.3136 4.6863C24.2916 1.66425 20.2736 0 16 0C11.7512 0 7.69055 1.682 4.68624 4.6863C1.66425 7.7083 0 11.7263 0 16C0 19.3316 1.01419 22.5249 2.93287 25.2348C4.80912 27.8846 7.40324 29.8798 10.4347 31.0046C10.6384 31.0802 10.8738 31.0186 11.0139 30.8357C11.0834 30.7449 11.1158 30.6311 11.1158 30.5168V21.3895C11.1158 21.1104 10.8895 20.8842 10.6105 20.8842H6.40005V17.179H10.6105C10.8896 17.179 11.1158 16.9527 11.1158 16.6737V16C11.1158 11.6037 15.287 7.74736 20.0421 7.74736H22.2316V11.4526H20.0421C18.6162 11.4526 17.3197 11.863 16.3913 12.6082C15.364 13.4327 14.821 14.6055 14.821 16V16.6737C14.821 16.9527 15.0473 17.1789 15.3263 17.1789H17.3183C17.5973 17.1789 17.8235 16.9527 17.8235 16.6737C17.8235 16.3946 17.5973 16.1684 17.3183 16.1684H15.8315V16C15.8315 13.3895 18.0997 12.4632 20.042 12.4632H22.7368C23.0158 12.4632 23.242 12.2369 23.242 11.9579V7.24211C23.242 6.96305 23.0158 6.73686 22.7368 6.73686H20.042C17.5722 6.73686 15.0687 7.71936 13.1736 9.43242C11.1949 11.2211 10.1052 13.5535 10.1052 16V16.1685H5.89468C5.61561 16.1685 5.38943 16.3947 5.38943 16.6737V21.3895C5.38943 21.6686 5.61568 21.8948 5.89468 21.8948H10.1052V29.7853C4.6363 27.4422 1.0105 21.9929 1.0105 16C1.0105 7.73474 7.73473 1.0105 15.9998 1.0105C24.256 1.0105 30.9894 7.74386 30.9894 16C30.9894 24.2652 24.2651 30.9894 15.9999 30.9894C15.9446 30.9894 15.8885 30.9891 15.8315 30.9883V21.8947H22.7368C23.0158 21.8947 23.242 21.6685 23.242 21.3895V16.6737C23.242 16.3946 23.0158 16.1684 22.7368 16.1684H19.7795C19.5004 16.1684 19.2742 16.3947 19.2742 16.6737C19.2742 16.9527 19.5005 17.1789 19.7795 17.1789H22.2315V20.8841H15.3263C15.0472 20.8841 14.821 21.1104 14.821 21.3894V31.4792C14.821 31.7495 15.034 31.9724 15.3041 31.984C15.5544 31.9947 15.7821 31.9999 16 31.9999C20.2737 31.9999 24.2917 30.3357 27.3137 27.3136C30.318 24.3093 32 20.2486 32 15.9998C31.9999 11.7263 30.3356 7.7083 27.3136 4.6863Z" fill="#688800"/>
</svg>
